<mxfile host="Electron" modified="2023-05-27T17:29:26.497Z" agent="Mozilla/5.0 (Windows NT 10.0; Win64; x64) AppleWebKit/537.36 (KHTML, like Gecko) draw.io/21.2.8 Chrome/112.0.5615.165 Electron/24.2.0 Safari/537.36" etag="jbBFCRBVxIbn6yhmF8rr" version="21.2.8" type="device">
  <diagram name="PÃ¡gina-1" id="8A34iGCpDNREY9lOanAp">
    <mxGraphModel dx="926" dy="560" grid="1" gridSize="10" guides="1" tooltips="1" connect="1" arrows="1" fold="1" page="1" pageScale="1" pageWidth="827" pageHeight="1169" math="0" shadow="0">
      <root>
        <mxCell id="0" />
        <mxCell id="1" parent="0" />
        <mxCell id="DObmzOYxZY19moNvqjmo-38" value="Cep" style="swimlane;fontStyle=1;align=center;verticalAlign=top;childLayout=stackLayout;horizontal=1;startSize=26;horizontalStack=0;resizeParent=1;resizeParentMax=0;resizeLast=0;collapsible=1;marginBottom=0;whiteSpace=wrap;html=1;fillColor=#d5e8d4;strokeColor=#82b366;" parent="1" vertex="1">
          <mxGeometry x="760" y="119" width="250" height="190" as="geometry" />
        </mxCell>
        <mxCell id="DObmzOYxZY19moNvqjmo-39" value="&lt;div&gt;- codigoPostal: String&lt;/div&gt;&lt;div&gt;- cidade: String&lt;/div&gt;&lt;div&gt;- estado: String&lt;/div&gt;" style="text;strokeColor=none;fillColor=none;align=left;verticalAlign=top;spacingLeft=4;spacingRight=4;overflow=hidden;rotatable=0;points=[[0,0.5],[1,0.5]];portConstraint=eastwest;whiteSpace=wrap;html=1;" parent="DObmzOYxZY19moNvqjmo-38" vertex="1">
          <mxGeometry y="26" width="250" height="54" as="geometry" />
        </mxCell>
        <mxCell id="DObmzOYxZY19moNvqjmo-40" value="" style="line;strokeWidth=1;fillColor=none;align=left;verticalAlign=middle;spacingTop=-1;spacingLeft=3;spacingRight=3;rotatable=0;labelPosition=right;points=[];portConstraint=eastwest;strokeColor=inherit;" parent="DObmzOYxZY19moNvqjmo-38" vertex="1">
          <mxGeometry y="80" width="250" height="8" as="geometry" />
        </mxCell>
        <mxCell id="DObmzOYxZY19moNvqjmo-41" value="&lt;div&gt;+ getCodigoPostal(): String&lt;/div&gt;&lt;div&gt;+ getCidade(): String&lt;/div&gt;&lt;div&gt;+ getEstado(): String&lt;/div&gt;&lt;div&gt;+ setCodigoPostal(String): void&lt;/div&gt;&lt;div&gt;+ setCidade(String): void&lt;/div&gt;&lt;div&gt;+ setEstado(String): void&lt;/div&gt;" style="text;strokeColor=none;fillColor=none;align=left;verticalAlign=top;spacingLeft=4;spacingRight=4;overflow=hidden;rotatable=0;points=[[0,0.5],[1,0.5]];portConstraint=eastwest;whiteSpace=wrap;html=1;" parent="DObmzOYxZY19moNvqjmo-38" vertex="1">
          <mxGeometry y="88" width="250" height="102" as="geometry" />
        </mxCell>
        <mxCell id="NzJEyuN3D5slC5bRoXp6-27" style="edgeStyle=orthogonalEdgeStyle;rounded=0;orthogonalLoop=1;jettySize=auto;html=1;endArrow=open;endFill=0;" edge="1" parent="1" source="DObmzOYxZY19moNvqjmo-65">
          <mxGeometry relative="1" as="geometry">
            <mxPoint x="350" y="265" as="targetPoint" />
          </mxGeometry>
        </mxCell>
        <mxCell id="DObmzOYxZY19moNvqjmo-65" value="Cliente" style="swimlane;fontStyle=1;align=center;verticalAlign=top;childLayout=stackLayout;horizontal=1;startSize=26;horizontalStack=0;resizeParent=1;resizeParentMax=0;resizeLast=0;collapsible=1;marginBottom=0;whiteSpace=wrap;html=1;fillColor=#f8cecc;strokeColor=#b85450;" parent="1" vertex="1">
          <mxGeometry x="40" y="239" width="250" height="52" as="geometry" />
        </mxCell>
        <mxCell id="DObmzOYxZY19moNvqjmo-77" value="&lt;font style=&quot;font-size: 20px;&quot;&gt;&lt;b&gt;1&lt;/b&gt;&lt;/font&gt;" style="text;html=1;align=center;verticalAlign=middle;resizable=0;points=[];autosize=1;strokeColor=none;fillColor=none;" parent="1" vertex="1">
          <mxGeometry x="360" y="190" width="30" height="40" as="geometry" />
        </mxCell>
        <mxCell id="DObmzOYxZY19moNvqjmo-78" value="&lt;font style=&quot;font-size: 20px;&quot;&gt;&lt;b&gt;2&lt;/b&gt;&lt;/font&gt;" style="text;html=1;align=center;verticalAlign=middle;resizable=0;points=[];autosize=1;strokeColor=none;fillColor=none;" parent="1" vertex="1">
          <mxGeometry x="360" y="418" width="30" height="40" as="geometry" />
        </mxCell>
        <mxCell id="NzJEyuN3D5slC5bRoXp6-1" value="&amp;lt;&amp;lt;ConsultarCepTarget&amp;gt;&amp;gt;" style="swimlane;fontStyle=1;align=center;verticalAlign=top;childLayout=stackLayout;horizontal=1;startSize=26;horizontalStack=0;resizeParent=1;resizeParentMax=0;resizeLast=0;collapsible=1;marginBottom=0;whiteSpace=wrap;html=1;fillColor=#e1d5e7;strokeColor=#9673a6;" vertex="1" parent="1">
          <mxGeometry x="360" y="239" width="250" height="50" as="geometry" />
        </mxCell>
        <mxCell id="NzJEyuN3D5slC5bRoXp6-4" value="&lt;div&gt;+ consultar(cep: String): Cep&lt;/div&gt;" style="text;strokeColor=none;fillColor=none;align=left;verticalAlign=top;spacingLeft=4;spacingRight=4;overflow=hidden;rotatable=0;points=[[0,0.5],[1,0.5]];portConstraint=eastwest;whiteSpace=wrap;html=1;" vertex="1" parent="NzJEyuN3D5slC5bRoXp6-1">
          <mxGeometry y="26" width="250" height="24" as="geometry" />
        </mxCell>
        <mxCell id="NzJEyuN3D5slC5bRoXp6-15" value="LeitorDeJson" style="swimlane;fontStyle=1;align=center;verticalAlign=top;childLayout=stackLayout;horizontal=1;startSize=26;horizontalStack=0;resizeParent=1;resizeParentMax=0;resizeLast=0;collapsible=1;marginBottom=0;whiteSpace=wrap;html=1;fillColor=#d5e8d4;strokeColor=#82b366;" vertex="1" parent="1">
          <mxGeometry x="760" y="358" width="250" height="100" as="geometry" />
        </mxCell>
        <mxCell id="NzJEyuN3D5slC5bRoXp6-16" value="- urlApi: String" style="text;strokeColor=none;fillColor=none;align=left;verticalAlign=top;spacingLeft=4;spacingRight=4;overflow=hidden;rotatable=0;points=[[0,0.5],[1,0.5]];portConstraint=eastwest;whiteSpace=wrap;html=1;" vertex="1" parent="NzJEyuN3D5slC5bRoXp6-15">
          <mxGeometry y="26" width="250" height="26" as="geometry" />
        </mxCell>
        <mxCell id="NzJEyuN3D5slC5bRoXp6-17" value="" style="line;strokeWidth=1;fillColor=none;align=left;verticalAlign=middle;spacingTop=-1;spacingLeft=3;spacingRight=3;rotatable=0;labelPosition=right;points=[];portConstraint=eastwest;strokeColor=inherit;" vertex="1" parent="NzJEyuN3D5slC5bRoXp6-15">
          <mxGeometry y="52" width="250" height="8" as="geometry" />
        </mxCell>
        <mxCell id="NzJEyuN3D5slC5bRoXp6-18" value="&lt;div&gt;+ LeitorDeJson(urlApi: String)&lt;/div&gt;&lt;div&gt;+ getConteudoJson(): Map&amp;lt;String, String&amp;gt;&lt;/div&gt;" style="text;strokeColor=none;fillColor=none;align=left;verticalAlign=top;spacingLeft=4;spacingRight=4;overflow=hidden;rotatable=0;points=[[0,0.5],[1,0.5]];portConstraint=eastwest;whiteSpace=wrap;html=1;" vertex="1" parent="NzJEyuN3D5slC5bRoXp6-15">
          <mxGeometry y="60" width="250" height="40" as="geometry" />
        </mxCell>
        <mxCell id="NzJEyuN3D5slC5bRoXp6-20" value="LeitorDeXml" style="swimlane;fontStyle=1;align=center;verticalAlign=top;childLayout=stackLayout;horizontal=1;startSize=26;horizontalStack=0;resizeParent=1;resizeParentMax=0;resizeLast=0;collapsible=1;marginBottom=0;whiteSpace=wrap;html=1;fillColor=#d5e8d4;strokeColor=#82b366;" vertex="1" parent="1">
          <mxGeometry x="760" y="488" width="250" height="100" as="geometry" />
        </mxCell>
        <mxCell id="NzJEyuN3D5slC5bRoXp6-21" value="- urlApi: String" style="text;strokeColor=none;fillColor=none;align=left;verticalAlign=top;spacingLeft=4;spacingRight=4;overflow=hidden;rotatable=0;points=[[0,0.5],[1,0.5]];portConstraint=eastwest;whiteSpace=wrap;html=1;" vertex="1" parent="NzJEyuN3D5slC5bRoXp6-20">
          <mxGeometry y="26" width="250" height="26" as="geometry" />
        </mxCell>
        <mxCell id="NzJEyuN3D5slC5bRoXp6-22" value="" style="line;strokeWidth=1;fillColor=none;align=left;verticalAlign=middle;spacingTop=-1;spacingLeft=3;spacingRight=3;rotatable=0;labelPosition=right;points=[];portConstraint=eastwest;strokeColor=inherit;" vertex="1" parent="NzJEyuN3D5slC5bRoXp6-20">
          <mxGeometry y="52" width="250" height="8" as="geometry" />
        </mxCell>
        <mxCell id="NzJEyuN3D5slC5bRoXp6-23" value="&lt;div&gt;+ LeitorDeXml(urlApi: String)&lt;/div&gt;&lt;div&gt;+ getConteudoXml(): Map&amp;lt;String, String&amp;gt;&lt;/div&gt;" style="text;strokeColor=none;fillColor=none;align=left;verticalAlign=top;spacingLeft=4;spacingRight=4;overflow=hidden;rotatable=0;points=[[0,0.5],[1,0.5]];portConstraint=eastwest;whiteSpace=wrap;html=1;" vertex="1" parent="NzJEyuN3D5slC5bRoXp6-20">
          <mxGeometry y="60" width="250" height="40" as="geometry" />
        </mxCell>
        <mxCell id="NzJEyuN3D5slC5bRoXp6-26" style="edgeStyle=orthogonalEdgeStyle;rounded=0;orthogonalLoop=1;jettySize=auto;html=1;endArrow=block;endFill=0;" edge="1" parent="1" source="NzJEyuN3D5slC5bRoXp6-24">
          <mxGeometry relative="1" as="geometry">
            <mxPoint x="485" y="298" as="targetPoint" />
          </mxGeometry>
        </mxCell>
        <mxCell id="NzJEyuN3D5slC5bRoXp6-35" style="edgeStyle=orthogonalEdgeStyle;rounded=0;orthogonalLoop=1;jettySize=auto;html=1;entryX=0;entryY=0.5;entryDx=0;entryDy=0;dashed=1;endArrow=open;endFill=0;" edge="1" parent="1" source="NzJEyuN3D5slC5bRoXp6-24" target="NzJEyuN3D5slC5bRoXp6-21">
          <mxGeometry relative="1" as="geometry" />
        </mxCell>
        <mxCell id="NzJEyuN3D5slC5bRoXp6-36" style="edgeStyle=orthogonalEdgeStyle;rounded=0;orthogonalLoop=1;jettySize=auto;html=1;entryX=0;entryY=0.25;entryDx=0;entryDy=0;endArrow=open;endFill=0;dashed=1;" edge="1" parent="1" source="NzJEyuN3D5slC5bRoXp6-24" target="NzJEyuN3D5slC5bRoXp6-15">
          <mxGeometry relative="1" as="geometry" />
        </mxCell>
        <mxCell id="NzJEyuN3D5slC5bRoXp6-24" value="ConsultarCepAdapter" style="swimlane;fontStyle=1;align=center;verticalAlign=top;childLayout=stackLayout;horizontal=1;startSize=26;horizontalStack=0;resizeParent=1;resizeParentMax=0;resizeLast=0;collapsible=1;marginBottom=0;whiteSpace=wrap;html=1;fillColor=#d5e8d4;strokeColor=#82b366;" vertex="1" parent="1">
          <mxGeometry x="360" y="358" width="250" height="50" as="geometry" />
        </mxCell>
        <mxCell id="NzJEyuN3D5slC5bRoXp6-25" value="+ consultar(cep: String): Cep" style="text;strokeColor=none;fillColor=none;align=left;verticalAlign=top;spacingLeft=4;spacingRight=4;overflow=hidden;rotatable=0;points=[[0,0.5],[1,0.5]];portConstraint=eastwest;whiteSpace=wrap;html=1;" vertex="1" parent="NzJEyuN3D5slC5bRoXp6-24">
          <mxGeometry y="26" width="250" height="24" as="geometry" />
        </mxCell>
        <mxCell id="NzJEyuN3D5slC5bRoXp6-37" style="edgeStyle=orthogonalEdgeStyle;rounded=0;orthogonalLoop=1;jettySize=auto;html=1;entryX=1.012;entryY=0.208;entryDx=0;entryDy=0;entryPerimeter=0;endArrow=diamond;endFill=1;" edge="1" parent="1" source="DObmzOYxZY19moNvqjmo-39" target="NzJEyuN3D5slC5bRoXp6-4">
          <mxGeometry relative="1" as="geometry" />
        </mxCell>
        <mxCell id="NzJEyuN3D5slC5bRoXp6-38" value="&lt;font style=&quot;font-size: 36px;&quot;&gt;Adapter&lt;/font&gt;" style="text;html=1;align=left;verticalAlign=middle;resizable=0;points=[];autosize=1;fillColor=#d5e8d4;strokeColor=#82b366;gradientColor=#97d077;" vertex="1" parent="1">
          <mxGeometry x="40" y="40" width="150" height="60" as="geometry" />
        </mxCell>
        <mxCell id="NzJEyuN3D5slC5bRoXp6-39" value="usa" style="text;html=1;align=left;verticalAlign=middle;resizable=0;points=[];autosize=1;strokeColor=none;fillColor=none;" vertex="1" parent="1">
          <mxGeometry x="295" y="232" width="40" height="30" as="geometry" />
        </mxCell>
        <mxCell id="NzJEyuN3D5slC5bRoXp6-40" value="implementa" style="text;html=1;align=left;verticalAlign=middle;resizable=0;points=[];autosize=1;strokeColor=none;fillColor=none;" vertex="1" parent="1">
          <mxGeometry x="490" y="324" width="90" height="30" as="geometry" />
        </mxCell>
        <mxCell id="NzJEyuN3D5slC5bRoXp6-41" value="compoe" style="text;html=1;align=left;verticalAlign=middle;resizable=0;points=[];autosize=1;strokeColor=none;fillColor=none;" vertex="1" parent="1">
          <mxGeometry x="687" y="138" width="70" height="30" as="geometry" />
        </mxCell>
        <mxCell id="NzJEyuN3D5slC5bRoXp6-43" value="instanciar" style="text;html=1;align=left;verticalAlign=middle;resizable=0;points=[];autosize=1;strokeColor=none;fillColor=none;" vertex="1" parent="1">
          <mxGeometry x="627" y="388" width="70" height="30" as="geometry" />
        </mxCell>
        <mxCell id="NzJEyuN3D5slC5bRoXp6-44" value="instanciar" style="text;html=1;align=left;verticalAlign=middle;resizable=0;points=[];autosize=1;strokeColor=none;fillColor=none;" vertex="1" parent="1">
          <mxGeometry x="495" y="418" width="70" height="30" as="geometry" />
        </mxCell>
      </root>
    </mxGraphModel>
  </diagram>
</mxfile>
